<svg width="30" height="30" viewBox="0 0 30 30" fill="none" xmlns="http://www.w3.org/2000/svg">
<path d="M15 30C23.2843 30 30 23.2843 30 15C30 6.71573 23.2843 -1.01779e-06 15 -6.55671e-07C6.71573 -2.93554e-07 2.93554e-07 6.71573 6.55671e-07 15C1.01779e-06 23.2843 6.71573 30 15 30Z" fill="#ECECEC"/>
<path d="M15 30C6.71573 30 8.89561e-07 23.2843 1.25168e-06 15C1.61379e-06 6.71573 6.71573 -1.01779e-06 15 -6.55671e-07C23.2843 -2.93554e-07 30 6.71573 30 15C30 23.2843 23.2843 30 15 30Z" stroke="#ECECEC"/>
<path d="M14 20L19 15L14 10" stroke="black"/>
</svg>
